<?xml version="1.0" encoding="UTF-8"?>
<!DOCTYPE svg PUBLIC "-//W3C//DTD SVG 1.1//EN" "http://www.w3.org/Graphics/SVG/1.1/DTD/svg11.dtd">
<svg xmlns="http://www.w3.org/2000/svg" version="1.1" width="200px" height="200px" style="shape-rendering:geometricPrecision; text-rendering:geometricPrecision; image-rendering:optimizeQuality; fill-rule:evenodd; clip-rule:evenodd" xmlns:xlink="http://www.w3.org/1999/xlink">
<g><path style="opacity:1" fill="#161719" d="M 73.5,7.5 C 91.1698,7.33339 108.836,7.50006 126.5,8C 127.872,13.1843 129.372,18.3509 131,23.5C 156.689,34.849 173.022,54.1823 180,81.5C 180.98,92.1491 181.813,102.816 182.5,113.5C 185.874,116.51 189.208,119.51 192.5,122.5C 183.573,138.028 174.407,153.361 165,168.5C 160.523,167.089 156.023,165.756 151.5,164.5C 116.74,187.459 82.2404,187.126 48,163.5C 43.3843,164.872 38.8843,166.538 34.5,168.5C 24.862,153.393 15.862,137.893 7.5,122C 10.6043,118.179 14.1043,114.679 18,111.5C 15.0002,69.8192 32.3335,40.1526 70,22.5C 71.1096,17.4454 72.2763,12.4454 73.5,7.5 Z"/></g>
<g><path style="opacity:1" fill="#0189fd" d="M 76.5,12.5 C 91.8333,12.5 107.167,12.5 122.5,12.5C 123.601,17.1673 124.768,21.834 126,26.5C 163.908,43.4756 180.408,72.6423 175.5,114C 179.389,117.107 183.056,120.441 186.5,124C 179.183,136.657 171.85,149.323 164.5,162C 159.668,161.784 155.001,160.617 150.5,158.5C 126.187,177.317 99.5201,181.484 70.5,171C 62.6654,167.253 55.332,162.753 48.5,157.5C 44.3732,159.265 40.2065,160.931 36,162.5C 28.1268,149.925 20.6268,137.092 13.5,124C 16.8613,119.977 20.1947,115.977 23.5,112C 19.7989,71.5452 36.4655,43.0452 73.5,26.5C 75.7607,22.1216 76.7607,17.4549 76.5,12.5 Z"/></g>
<g><path style="opacity:1" fill="#04090e" d="M 54.5,44.5 C 59.5322,44.2143 64.0322,45.5476 68,48.5C 68.6667,51.8333 68.6667,55.1667 68,58.5C 59.6918,54.537 52.8584,56.2037 47.5,63.5C 46.2616,59.9498 44.9283,56.4498 43.5,53C 46.5141,49.1779 50.1808,46.3446 54.5,44.5 Z"/></g>
<g><path style="opacity:1" fill="#04080d" d="M 137.5,44.5 C 144.898,44.3655 150.898,47.1988 155.5,53C 154.191,56.5991 152.691,60.0991 151,63.5C 146.983,56.8625 141.15,54.6958 133.5,57C 132.584,57.3742 131.75,57.8742 131,58.5C 128.609,51.3692 130.775,46.7025 137.5,44.5 Z"/></g>
<g><path style="opacity:1" fill="#05090f" d="M 62.5,75.5 C 67.7419,74.2706 71.5752,75.9372 74,80.5C 74.6667,87.8333 74.6667,95.1667 74,102.5C 69.4711,110.089 64.4711,110.422 59,103.5C 58.3333,95.5 58.3333,87.5 59,79.5C 60.3756,78.2949 61.5423,76.9616 62.5,75.5 Z"/></g>
<g><path style="opacity:1" fill="#070c13" d="M 128.5,75.5 C 133.223,74.5531 137.056,75.8864 140,79.5C 140.667,87.5 140.667,95.5 140,103.5C 134.579,110.433 129.579,110.1 125,102.5C 124.333,94.8333 124.333,87.1667 125,79.5C 126.376,78.2949 127.542,76.9616 128.5,75.5 Z"/></g>
<g><path style="opacity:1" fill="#daddfd" d="M 62.5,79.5 C 64.3904,79.2965 65.8904,79.9632 67,81.5C 67.6667,84.5 67.6667,87.5 67,90.5C 65.4773,92.6201 63.6439,92.9535 61.5,91.5C 60.0163,87.2205 60.3497,83.2205 62.5,79.5 Z"/></g>
<g><path style="opacity:1" fill="#ecf0fe" d="M 128.5,79.5 C 130.144,79.2865 131.644,79.6198 133,80.5C 133.825,84.2113 133.659,87.878 132.5,91.5C 130.958,92.7468 129.458,92.7468 128,91.5C 127.238,87.4126 127.404,83.4126 128.5,79.5 Z"/></g>
<g><path style="opacity:1" fill="#102733" d="M 46.5,107.5 C 50.1669,107.164 53.5002,107.997 56.5,110C 52.5482,112.604 48.2148,113.604 43.5,113C 44.67,111.245 46.3367,110.245 48.5,110C 47.244,109.583 46.5774,108.75 46.5,107.5 Z"/></g>
<g><path style="opacity:1" fill="#0f2734" d="M 145.5,107.5 C 147.924,107.192 150.257,107.526 152.5,108.5C 151.975,109.192 151.308,109.692 150.5,110C 152.663,110.245 154.33,111.245 155.5,113C 150.677,114.027 146.344,113.027 142.5,110C 143.571,109.148 144.571,108.315 145.5,107.5 Z"/></g>
<g><path style="opacity:1" fill="#270101" d="M 115.5,149.5 C 108.706,140.468 100.039,138.301 89.5,143C 86.9541,144.711 84.9541,146.877 83.5,149.5C 78.1423,144.778 75.4757,138.778 75.5,131.5C 91.5,131.5 107.5,131.5 123.5,131.5C 123.524,138.778 120.858,144.778 115.5,149.5 Z"/></g>
<g><path style="opacity:1" fill="#f90001" d="M 115.5,149.5 C 104.833,157.5 94.1667,157.5 83.5,149.5C 84.9541,146.877 86.9541,144.711 89.5,143C 100.039,138.301 108.706,140.468 115.5,149.5 Z"/></g>
</svg>
